<svg width="320" height="96" viewBox="0 0 320 96" fill="none" xmlns="http://www.w3.org/2000/svg" role="img" aria-label="KAIROS">
  <defs>
    <style></style>
    <linearGradient id="ct-grad" x1="0" y1="0" x2="72" y2="72" gradientUnits="userSpaceOnUse">
      <stop offset="0" stop-color="#4F46E5"/>
      <stop offset="1" stop-color="#06B6D4"/>
    </linearGradient>
    <linearGradient id="text-grad" x1="100" y1="0" x2="315" y2="0" gradientUnits="userSpaceOnUse">
      <stop offset="0%" stop-color="#4F46E5"/>
      <stop offset="100%" stop-color="#06B6D4"/>
    </linearGradient>
    <clipPath id="kairos-clip">
      <text x="100" y="64"
            font-family="'Georgia', 'Times New Roman', serif"
            font-size="48"
            font-weight="700"
            letter-spacing="1">KAIROS</text>
    </clipPath>
  </defs>

  <!-- Icon: a timetable grid with placed course blocks -->
  <g transform="translate(12 12)">
    <rect x="0" y="0" width="72" height="72" rx="16" fill="url(#ct-grad)"/>
    <g stroke="#FFFFFF" stroke-opacity="0.28" stroke-width="2" stroke-linecap="round">
      <line x1="14" y1="26" x2="58" y2="26"/>
      <line x1="14" y1="40" x2="58" y2="40"/>
      <line x1="14" y1="54" x2="58" y2="54"/>
      <line x1="28" y1="20" x2="28" y2="60"/>
      <line x1="44" y1="20" x2="44" y2="60"/>
    </g>
    <rect x="16" y="28" width="10" height="10" rx="2.5" fill="#FFFFFF"/>
    <rect x="46" y="28" width="10" height="10" rx="2.5" fill="#FFFFFF" fill-opacity="0.65"/>
    <rect x="31" y="42" width="10" height="10" rx="2.5" fill="#FFFFFF" fill-opacity="0.65"/>
    <rect x="16" y="42" width="10" height="10" rx="2.5" fill="#FFFFFF" fill-opacity="0.4"/>
    <rect x="46" y="42" width="10" height="10" rx="2.5" fill="#FACC15"/>
    <circle cx="21" cy="14" r="2.2" fill="#FFFFFF" fill-opacity="0.85"/>
    <circle cx="36" cy="14" r="2.2" fill="#FFFFFF" fill-opacity="0.85"/>
    <circle cx="51" cy="14" r="2.2" fill="#FFFFFF" fill-opacity="0.85"/>
  </g>

  <!-- Wordmark: gradient rect clipped to text shape (reliable cross-browser technique) -->
  <rect x="98" y="10" width="222" height="68" fill="url(#text-grad)" clip-path="url(#kairos-clip)"/>
</svg>
